HIERARCHY
ROOT Hips
{
    OFFSET 0.000000 0.000000 0.000000
    CHANNELS 6 Xposition Yposition Zposition Zrotation Xrotation Yrotation
        JOINT Chest
        {
            OFFSET -0.000000 31.935503 -0.000000
            CHANNELS 3 Zrotation Xrotation Yrotation
            JOINT Neck
            {
                OFFSET -0.000000 23.713140 0.000000
                CHANNELS 3 Zrotation Xrotation Yrotation
                JOINT Head
                {
                    OFFSET -0.000000 10.938888 0.000000
                    CHANNELS 3 Zrotation Xrotation Yrotation
                    End Site
                    {
                        OFFSET -0.000000 16.905556 0.000000
                    }
                }
            }
            JOINT LeftCollar
            {
                OFFSET -0.000000 23.713140 0.000000
                CHANNELS 3 Zrotation Xrotation Yrotation
                JOINT LeftShoulder
                {
                    OFFSET 19.888887 -0.000000 0.000000
                    CHANNELS 3 Zrotation Xrotation Yrotation
                    JOINT LeftElbow
                    {
                        OFFSET 23.906332 0.000000 0.000000
                        CHANNELS 3 Zrotation Xrotation Yrotation
                        JOINT LeftWrist
                        {
                            OFFSET 25.116924 0.000000 0.000000
                            CHANNELS 3 Zrotation Xrotation Yrotation
                            End Site
                            {
                                OFFSET 0.000000 -14.916667 0.000000
                            }
                        }
                    }
                }
            }
            JOINT RightCollar
            {
                OFFSET -0.000000 23.713140 0.000000
                CHANNELS 3 Zrotation Xrotation Yrotation
                JOINT RightShoulder
                {
                    OFFSET -19.888887 0.000000 0.000000
                    CHANNELS 3 Zrotation Xrotation Yrotation
                    JOINT RightElbow
                    {
                        OFFSET -23.906332 0.000000 0.000000
                        CHANNELS 3 Zrotation Xrotation Yrotation
                        JOINT RightWrist
                        {
                            OFFSET -25.116924 0.000000 0.000000
                            CHANNELS 3 Zrotation Xrotation Yrotation
                            End Site
                            {
                                OFFSET -0.000000 -14.916667 0.000000
                            }
                        }
                    }
                }
            }
        }
    JOINT LeftHip
    {
        OFFSET 11.933332 0.000000 0.000000
        CHANNELS 3 Zrotation Xrotation Yrotation
        JOINT LeftKnee
        {
            OFFSET -0.000000 -35.996647 0.000000
            CHANNELS 3 Zrotation Xrotation Yrotation
            JOINT LeftAnkle
            {
                OFFSET -0.000000 -39.788193 0.000000
                CHANNELS 3 Zrotation Xrotation Yrotation
                End Site
                {
                    OFFSET -0.000000 -4.972222 16.905556
                }
            }
        }
    }
    JOINT RightHip
    {
        OFFSET -11.933332 0.000000 0.000000
        CHANNELS 3 Zrotation Xrotation Yrotation
        JOINT RightKnee
        {
            OFFSET -0.000000 -35.996647 0.000000
            CHANNELS 3 Zrotation Xrotation Yrotation
            JOINT RightAnkle
            {
                OFFSET -0.000000 -39.788193 0.000000
                CHANNELS 3 Zrotation Xrotation Yrotation
                End Site
                {
                    OFFSET -0.000000 -4.972222 16.905556
                }
            }
        }
    }
}
MOTION
Frames:    6
Frame Time:    0.010000
-92.033264    86.780563    -4.672710    -2.237718    -4.232395    48.553246    5.430864    12.607727    0.508527    1.444209    7.486031    -8.090235    1.209642    -16.199747    -8.098213    -14.946362    1.228866    -9.088143    -45.034618    39.109814    -16.558516    31.539858    -20.479132    -65.293625    107.202454    15.419089    56.859051    14.068400    -1.749048    -13.881048    -8.234597    52.924919    86.173897    -14.988202    -6.263438    44.985878    -117.190918    -1.873911    -20.443806    16.506710    3.348034    5.309738    -0.241315    22.370792    2.419869    -8.631225    -8.880664    20.592390    1.542149    -12.527447    4.598924    4.884357    27.170271    -11.674345    7.742561    -11.630158    5.527918    
-92.161247    86.730171    -4.528579    -2.236082    -4.220600    48.959312    5.430071    12.677501    0.586819    1.724320    7.332070    -8.557634    0.211435    -16.071680    -8.428507    -14.837745    1.250981    -9.722925    -45.023834    38.846367    -16.531399    31.437037    -20.506311    -65.678505    107.257690    17.087282    57.144245    14.168282    -1.802976    -14.325336    -7.752379    52.553177    85.796135    -14.788127    -6.133188    44.969418    -117.137207    -2.102027    -20.211695    16.656197    3.170856    5.092638    -0.206370    22.362713    2.478734    -8.673973    -8.836673    20.407316    1.572700    -12.627598    4.284893    4.975927    27.376186    -12.031102    7.548781    -11.688393    5.756454    
-92.233566    86.687004    -4.391791    -2.176186    -4.222655    49.305580    5.386597    12.730447    0.714834    1.428470    7.393997    -8.700192    0.671325    -15.970998    -8.518351    -14.927326    1.246104    -9.526530    -44.421368    39.381943    -17.218204    31.694305    -20.654757    -65.036552    107.244011    16.451637    57.189220    14.188041    -1.808031    -14.387622    -8.164567    52.394497    86.268486    -14.925626    -6.200821    44.725670    -116.995926    -1.897791    -20.399927    16.722549    3.170136    5.066990    -0.065771    22.199652    2.208295    -8.862929    -8.847257    20.394190    1.642190    -12.559743    4.086386    4.945915    27.452452    -12.081475    7.319020    -11.819685    5.671799    
-92.315727    86.667252    -4.289558    -2.151173    -4.215073    49.580727    5.363861    12.770390    0.798683    1.280408    7.425920    -8.839636    0.971548    -15.939991    -8.624756    -14.943270    1.277160    -9.599598    -44.271519    39.353699    -17.397263    31.782265    -20.597290    -64.886086    107.267258    16.696915    57.453041    14.221180    -1.796113    -14.419339    -8.131554    52.215736    86.273682    -14.917899    -6.145038    44.625969    -116.946701    -1.860604    -20.430370    16.798563    3.116631    5.005911    0.002682    22.110384    2.091300    -8.932337    -8.814738    20.328732    1.680893    -12.556355    3.929697    4.969962    27.520147    -12.219828    7.202110    -11.882200    5.668818    
-92.413216    86.650642    -4.175424    -2.127464    -4.199834    49.894150    5.333768    12.807526    0.896716    1.097335    7.475235    -8.986393    1.328957    -15.906507    -8.733474    -14.976671    1.248075    -9.673417    -44.129906    39.348991    -17.543783    31.938683    -20.645546    -64.703842    107.189911    16.836187    57.709930    14.252553    -1.804175    -14.417130    -8.055567    52.036266    86.248909    -14.923961    -6.123215    44.475792    -116.839043    -1.894162    -20.430227    16.884523    3.053155    4.945433    0.076839    21.992584    1.942091    -8.986174    -8.759069    20.260225    1.728204    -12.552006    3.765118    4.993044    27.577728    -12.368219    7.081352    -11.950562    5.643920    
-92.524529    86.638458    -4.052607    -2.108482    -4.174477    50.241684    5.296471    12.838362    1.004898    0.907417    7.526146    -9.150730    1.711551    -15.861852    -8.857519    -14.999737    1.286788    -9.765275    -44.009464    39.247906    -17.704403    31.994780    -20.571636    -64.506638    107.137817    16.923233    57.982277    14.291348    -1.814138    -14.402647    -7.915618    51.833206    86.153900    -14.842130    -6.082675    44.338688    -116.741028    -1.994558    -20.395374    16.978651    2.978682    4.887493    0.152751    21.840918    1.760487    -8.993196    -8.664557    20.189426    1.783930    -12.546900    3.599063    5.013741    27.615320    -12.522702    6.960593    -12.021371    5.591452    
